<mxfile host="app.diagrams.net" modified="2023-04-24T19:07:37.934Z" agent="Mozilla/5.0 (Macintosh; Intel Mac OS X 10_15_7) AppleWebKit/605.1.15 (KHTML, like Gecko) Version/15.4 Safari/605.1.15" version="21.2.1" etag="rHvhcb9ieiCfv8D08Hie" type="github">
  <diagram name="Page-1" id="2YADGjwZwKlr2Inu213Q">
    <mxGraphModel>
      <root>
        <mxCell id="0" />
        <mxCell id="1" parent="0" />
      </root>
    </mxGraphModel>
  </diagram>
</mxfile>
